# Blender v2.79 (sub 0) OBJ File: 'Sonicator.blend'
# www.blender.org
mtllib Sonicator.mtl
o Cube
v 2.012730 -0.865396 1.000000
v -2.012729 -0.865397 1.000000
v -2.012729 -0.865396 -1.000000
v 2.012730 -0.865395 -1.000000
v 2.012728 1.134604 1.000001
v -2.012731 1.134603 1.000000
v -2.012729 1.134604 -1.000000
v 2.012729 1.134605 -1.000000
v 1.816764 1.134604 0.902638
v -1.816767 1.134603 0.902638
v 1.816765 1.134605 -0.902637
v -1.816765 1.134603 -0.902637
v 1.816764 -0.201905 0.902638
v -1.816766 -0.201907 0.902637
v 1.816765 -0.201905 -0.902638
v -1.816765 -0.201906 -0.902638
v 2.207231 0.810261 0.046823
v 2.207231 -0.311095 0.046823
v 2.206419 0.810261 0.038579
v 2.206419 -0.311095 0.038579
v 2.204014 0.810261 0.030652
v 2.204014 -0.311095 0.030652
v 2.200110 0.810261 0.023347
v 2.200109 -0.311095 0.023346
v 2.194854 0.810261 0.016943
v 2.194854 -0.311095 0.016943
v 2.188451 0.810261 0.011688
v 2.188451 -0.311095 0.011688
v 2.181146 0.810261 0.007783
v 2.181145 -0.311095 0.007783
v 2.173218 0.810261 0.005379
v 2.173218 -0.311095 0.005378
v 2.164975 0.810261 0.004567
v 2.164974 -0.311095 0.004566
v 2.156731 0.810261 0.005379
v 2.156731 -0.311095 0.005378
v 2.148804 0.810261 0.007783
v 2.148804 -0.311095 0.007783
v 2.141498 0.810261 0.011688
v 2.141498 -0.311095 0.011688
v 2.135095 0.810261 0.016943
v 2.135095 -0.311095 0.016943
v 2.129840 0.810261 0.023347
v 2.129840 -0.311095 0.023346
v 2.125935 0.810261 0.030652
v 2.125935 -0.311095 0.030652
v 2.123530 0.810261 0.038579
v 2.123530 -0.311095 0.038579
v 2.122718 0.810261 0.046823
v 2.122718 -0.311095 0.046823
v 2.123530 0.810261 0.055067
v 2.123530 -0.311095 0.055067
v 2.125935 0.810261 0.062994
v 2.125935 -0.311095 0.062994
v 2.129840 0.810261 0.070299
v 2.129840 -0.311095 0.070299
v 2.135095 0.810261 0.076703
v 2.135095 -0.311095 0.076703
v 2.141498 0.810261 0.081958
v 2.141498 -0.311095 0.081958
v 2.148804 0.810261 0.085863
v 2.148804 -0.311095 0.085863
v 2.156731 0.810261 0.088268
v 2.156731 -0.311095 0.088267
v 2.164975 0.810261 0.089079
v 2.164974 -0.311095 0.089079
v 2.173218 0.810261 0.088267
v 2.173218 -0.311095 0.088267
v 2.181146 0.810261 0.085863
v 2.181145 -0.311095 0.085863
v 2.188451 0.810261 0.081958
v 2.188451 -0.311095 0.081958
v 2.194854 0.810261 0.076703
v 2.194854 -0.311095 0.076703
v 2.200110 0.810261 0.070299
v 2.200109 -0.311095 0.070299
v 2.204014 0.810261 0.062994
v 2.204014 -0.311095 0.062994
v 2.206419 0.810261 0.055067
v 2.206419 -0.311095 0.055067
v 2.206141 0.987703 0.046823
v 2.205349 0.987520 0.038579
v 2.203007 0.986977 0.030652
v 2.199203 0.986096 0.023347
v 2.194083 0.984909 0.016943
v 2.187845 0.983464 0.011688
v 2.180728 0.981815 0.007783
v 2.173006 0.980026 0.005379
v 2.164975 0.978165 0.004567
v 2.156944 0.976304 0.005379
v 2.149221 0.974514 0.007783
v 2.142104 0.972865 0.011688
v 2.135866 0.971420 0.016943
v 2.130747 0.970234 0.023347
v 2.126943 0.969352 0.030652
v 2.124600 0.968809 0.038579
v 2.123809 0.968626 0.046823
v 2.124600 0.968809 0.055067
v 2.126943 0.969352 0.062994
v 2.130747 0.970234 0.070300
v 2.135866 0.971420 0.076703
v 2.142104 0.972865 0.081958
v 2.149221 0.974514 0.085863
v 2.156944 0.976304 0.088268
v 2.164975 0.978165 0.089080
v 2.173006 0.980026 0.088268
v 2.180728 0.981815 0.085863
v 2.187845 0.983464 0.081958
v 2.194083 0.984910 0.076703
v 2.199203 0.986096 0.070300
v 2.203007 0.986977 0.062994
v 2.205349 0.987520 0.055067
v 2.187303 1.057250 0.046823
v 2.186625 1.056802 0.038579
v 2.184619 1.055476 0.030652
v 2.181361 1.053324 0.023347
v 2.176977 1.050427 0.016943
v 2.171634 1.046897 0.011688
v 2.165539 1.042869 0.007783
v 2.158926 1.038499 0.005379
v 2.152048 1.033955 0.004567
v 2.145170 1.029410 0.005379
v 2.138556 1.025040 0.007783
v 2.132461 1.021013 0.011688
v 2.127118 1.017483 0.016943
v 2.122734 1.014586 0.023347
v 2.119476 1.012433 0.030652
v 2.117470 1.011107 0.038579
v 2.116792 1.010660 0.046823
v 2.117470 1.011107 0.055067
v 2.119476 1.012433 0.062994
v 2.122734 1.014586 0.070300
v 2.127118 1.017483 0.076703
v 2.132461 1.021013 0.081958
v 2.138556 1.025040 0.085863
v 2.145170 1.029410 0.088268
v 2.152048 1.033955 0.089080
v 2.158926 1.038499 0.088268
v 2.165539 1.042869 0.085863
v 2.171634 1.046897 0.081958
v 2.176977 1.050427 0.076703
v 2.181361 1.053324 0.070300
v 2.184619 1.055476 0.062994
v 2.186625 1.056802 0.055067
v 2.142076 1.116189 0.046823
v 2.141528 1.115589 0.038579
v 2.139907 1.113813 0.030652
v 2.137275 1.110929 0.023347
v 2.133733 1.107047 0.016943
v 2.129416 1.102318 0.011688
v 2.124490 1.096922 0.007783
v 2.119147 1.091067 0.005379
v 2.113589 1.084978 0.004567
v 2.108032 1.078889 0.005379
v 2.102688 1.073034 0.007783
v 2.097763 1.067638 0.011688
v 2.093447 1.062908 0.016943
v 2.089904 1.059027 0.023347
v 2.087272 1.056143 0.030652
v 2.085651 1.054366 0.038579
v 2.085103 1.053767 0.046823
v 2.085651 1.054366 0.055067
v 2.087272 1.056143 0.062994
v 2.089904 1.059027 0.070300
v 2.093447 1.062908 0.076703
v 2.097763 1.067638 0.081958
v 2.102688 1.073034 0.085863
v 2.108032 1.078889 0.088268
v 2.113589 1.084978 0.089079
v 2.119147 1.091067 0.088268
v 2.124490 1.096922 0.085863
v 2.129416 1.102318 0.081958
v 2.133733 1.107048 0.076703
v 2.137275 1.110929 0.070299
v 2.139907 1.113813 0.062994
v 2.141528 1.115589 0.055067
v 2.088620 1.164788 0.046823
v 2.088124 1.164145 0.038579
v 2.086653 1.162243 0.030652
v 2.084264 1.159155 0.023347
v 2.081048 1.154998 0.016943
v 2.077131 1.149933 0.011688
v 2.072660 1.144154 0.007783
v 2.067811 1.137884 0.005379
v 2.062767 1.131363 0.004567
v 2.057723 1.124843 0.005379
v 2.052873 1.118572 0.007783
v 2.048403 1.112794 0.011688
v 2.044486 1.107729 0.016943
v 2.041270 1.103572 0.023347
v 2.038881 1.100483 0.030652
v 2.037410 1.098581 0.038579
v 2.036913 1.097939 0.046823
v 2.037410 1.098581 0.055067
v 2.038881 1.100483 0.062994
v 2.041270 1.103572 0.070300
v 2.044486 1.107729 0.076703
v 2.048403 1.112794 0.081958
v 2.052873 1.118572 0.085863
v 2.057723 1.124843 0.088268
v 2.062767 1.131363 0.089080
v 2.067811 1.137884 0.088268
v 2.072660 1.144154 0.085863
v 2.077131 1.149933 0.081958
v 2.081048 1.154998 0.076703
v 2.084264 1.159155 0.070299
v 2.086653 1.162243 0.062994
v 2.088124 1.164145 0.055067
v 2.005740 1.225520 0.046823
v 2.005499 1.224744 0.038579
v 2.004786 1.222447 0.030652
v 2.003629 1.218718 0.023347
v 2.002071 1.213699 0.016943
v 2.000173 1.207584 0.011688
v 1.998007 1.200606 0.007783
v 1.995658 1.193036 0.005379
v 1.993214 1.185162 0.004567
v 1.990770 1.177289 0.005379
v 1.988421 1.169718 0.007783
v 1.986255 1.162741 0.011688
v 1.984357 1.156626 0.016943
v 1.982799 1.151606 0.023347
v 1.981642 1.147877 0.030652
v 1.980929 1.145581 0.038579
v 1.980688 1.144805 0.046823
v 1.980929 1.145581 0.055067
v 1.981642 1.147877 0.062994
v 1.982799 1.151606 0.070300
v 1.984357 1.156626 0.076703
v 1.986255 1.162741 0.081958
v 1.988421 1.169718 0.085863
v 1.990770 1.177289 0.088268
v 1.993214 1.185162 0.089080
v 1.995658 1.193036 0.088268
v 1.998007 1.200606 0.085863
v 2.000173 1.207584 0.081958
v 2.002071 1.213699 0.076703
v 2.003629 1.218718 0.070300
v 2.004786 1.222447 0.062994
v 2.005499 1.224744 0.055067
v 2.012730 -0.865396 1.000000
v -2.012729 -0.865397 1.000000
v 2.012730 -0.865395 -1.000000
v -2.012729 -0.865396 -1.000000
v 1.856785 -0.145810 0.223125
v 1.856785 -0.094290 0.223125
v 1.856785 -0.145810 -0.174311
v 1.856785 -0.094290 -0.174311
v 2.254221 -0.145810 0.223125
v 2.254221 -0.094290 0.223125
v 2.254221 -0.145810 -0.174311
v 2.254221 -0.094290 -0.174311
vn 0.0000 0.0000 1.0000
vn -0.0000 1.0000 0.0000
vn -1.0000 -0.0000 -0.0000
vn 0.0000 0.0000 -1.0000
vn 1.0000 0.0000 0.0000
vn 0.9952 -0.0000 -0.0980
vn 0.9569 -0.0000 -0.2903
vn 0.8819 -0.0000 -0.4714
vn 0.7730 -0.0000 -0.6344
vn 0.6344 -0.0000 -0.7730
vn 0.4714 0.0000 -0.8819
vn 0.2903 0.0000 -0.9569
vn 0.0980 0.0000 -0.9952
vn -0.0980 0.0000 -0.9952
vn -0.2903 0.0000 -0.9569
vn -0.4714 0.0000 -0.8819
vn -0.6344 0.0000 -0.7730
vn -0.7730 0.0000 -0.6344
vn -0.8819 0.0000 -0.4714
vn -0.9569 0.0000 -0.2903
vn -0.9952 0.0000 -0.0980
vn -0.9952 0.0000 0.0980
vn -0.9569 0.0000 0.2903
vn -0.8819 0.0000 0.4714
vn -0.7730 -0.0000 0.6344
vn -0.6344 -0.0000 0.7730
vn -0.4714 -0.0000 0.8819
vn -0.2903 -0.0000 0.9569
vn -0.0980 -0.0000 0.9952
vn 0.0980 -0.0000 0.9952
vn 0.2903 -0.0000 0.9569
vn 0.4714 -0.0000 0.8819
vn 0.6344 -0.0000 0.7730
vn 0.7730 -0.0000 0.6344
vn 0.8819 -0.0000 0.4714
vn -0.0000 -1.0000 -0.0000
vn 0.9569 -0.0000 0.2903
vn 0.9952 -0.0000 0.0980
vn 0.0993 0.0001 -0.9951
vn -0.6370 -0.1244 0.7607
vn -0.9953 0.0068 0.0967
vn 0.2937 0.0005 0.9559
vn 0.7768 0.0037 -0.6297
vn -0.7772 0.0041 -0.6292
vn -0.4763 0.0015 0.8793
vn 0.9579 0.0056 0.2870
vn -0.0993 0.0001 -0.9951
vn -0.9580 0.0063 0.2866
vn 0.4760 0.0014 0.8794
vn 0.6391 0.0025 -0.7691
vn -0.8846 0.0053 -0.4664
vn -0.2938 0.0006 0.9559
vn 0.9953 0.0061 -0.0968
vn 0.9953 0.0061 0.0968
vn -0.2938 0.0006 -0.9559
vn -0.8846 0.0053 0.4664
vn 0.6391 0.0025 0.7691
vn 0.4760 0.0014 -0.8794
vn -0.9580 0.0063 -0.2866
vn -0.0993 0.0001 0.9951
vn 0.9579 0.0056 -0.2870
vn -0.4763 0.0015 -0.8793
vn -0.7772 0.0041 0.6292
vn 0.7769 0.0037 0.6297
vn 0.2937 0.0005 -0.9559
vn -0.9953 0.0068 -0.0967
vn 0.0993 0.0001 0.9951
vn 0.8843 0.0048 -0.4668
vn -0.6395 0.0027 -0.7688
vn -0.6395 0.0027 0.7688
vn 0.8843 0.0048 0.4668
vn -0.0791 -0.0595 0.9951
vn 0.0984 0.0233 -0.9949
vn -0.4750 -0.0978 0.8746
vn -0.0987 -0.0224 -0.9949
vn -0.2928 -0.0634 0.9541
vn -0.2928 -0.0634 -0.9541
vn -0.0987 -0.0224 0.9949
vn -0.4750 -0.0978 -0.8746
vn 0.0984 0.0233 0.9949
vn -0.6370 -0.1244 -0.7607
vn 0.2897 0.0709 0.9545
vn -0.7724 -0.1432 -0.6188
vn 0.4673 0.1179 0.8762
vn -0.8764 -0.1552 -0.4558
vn 0.9609 0.2600 -0.0955
vn 0.6243 0.1613 0.7643
vn -0.9466 -0.1618 -0.2788
vn 0.9260 0.2494 -0.2834
vn 0.7556 0.1989 0.6241
vn -0.9819 -0.1647 -0.0938
vn 0.8570 0.2288 -0.4617
vn 0.8570 0.2288 0.4617
vn -0.9819 -0.1647 0.0938
vn 0.7556 0.1989 -0.6241
vn 0.9260 0.2494 0.2834
vn -0.9466 -0.1618 0.2787
vn 0.6243 0.1613 -0.7643
vn 0.9609 0.2600 0.0955
vn -0.8764 -0.1552 0.4558
vn 0.4673 0.1179 -0.8762
vn -0.7724 -0.1432 0.6188
vn 0.2897 0.0709 -0.9545
vn 0.3178 0.3489 0.8816
vn -0.3808 -0.2840 -0.8800
vn 0.0790 0.0596 0.9951
vn -0.5123 -0.3805 -0.7699
vn 0.2333 0.1769 0.9562
vn -0.6239 -0.4617 -0.6306
vn 0.3779 0.2874 0.8801
vn -0.7113 -0.5248 -0.4676
vn 0.7896 0.6058 -0.0972
vn 0.5072 0.3869 0.7702
vn -0.7713 -0.5678 -0.2876
vn 0.7600 0.5827 -0.2879
vn 0.6164 0.4712 0.6309
vn -0.8018 -0.5896 -0.0970
vn 0.7016 0.5373 -0.4680
vn 0.7016 0.5373 0.4680
vn -0.8018 -0.5896 0.0970
vn 0.6163 0.4712 -0.6309
vn 0.7600 0.5827 0.2879
vn -0.7713 -0.5678 0.2876
vn 0.5072 0.3869 -0.7701
vn 0.7896 0.6058 0.0972
vn -0.7113 -0.5248 0.4676
vn 0.3779 0.2874 -0.8801
vn -0.6239 -0.4617 0.6306
vn 0.2333 0.1769 -0.9562
vn -0.5123 -0.3805 0.7699
vn 0.0790 0.0596 -0.9951
vn -0.3808 -0.2840 0.8800
vn -0.0791 -0.0595 -0.9951
vn -0.2344 -0.1756 0.9561
vn -0.2344 -0.1756 -0.9561
vn 0.5265 0.7143 -0.4611
vn -0.5960 -0.6505 -0.4707
vn 0.6695 0.7364 -0.0979
vn 0.4275 0.4695 0.7725
vn -0.6466 -0.7056 -0.2898
vn 0.6439 0.7081 -0.2899
vn 0.5206 0.5721 0.6338
vn -0.6724 -0.7336 -0.0979
vn 0.5936 0.6527 -0.4708
vn 0.5936 0.6527 0.4708
vn -0.6725 -0.7336 0.0979
vn 0.5206 0.5721 -0.6338
vn 0.6439 0.7081 0.2899
vn -0.6466 -0.7056 0.2898
vn 0.4275 0.4696 -0.7725
vn 0.6695 0.7364 0.0979
vn -0.5960 -0.6505 0.4707
vn 0.3178 0.3489 -0.8816
vn -0.5224 -0.5705 0.6338
vn 0.1959 0.2148 -0.9568
vn -0.4287 -0.4685 0.7725
vn 0.0662 0.0725 -0.9952
vn -0.3185 -0.3483 0.8816
vn -0.0662 -0.0725 -0.9952
vn -0.1961 -0.2146 0.9568
vn -0.1961 -0.2146 -0.9568
vn -0.0662 -0.0725 0.9952
vn -0.3185 -0.3483 -0.8816
vn 0.0662 0.0725 0.9952
vn -0.4287 -0.4685 -0.7725
vn 0.1959 0.2148 0.9568
vn -0.5224 -0.5705 -0.6338
vn -0.9551 0.2964 0.0000
vn 0.5265 0.7143 0.4611
vn -0.6371 -0.7650 0.0943
vn 0.4654 0.6282 -0.6235
vn 0.5677 0.7731 0.2829
vn -0.6131 -0.7387 0.2801
vn 0.3860 0.5173 -0.7638
vn 0.5885 0.8028 0.0954
vn -0.5658 -0.6860 0.4574
vn 0.2901 0.3854 -0.8760
vn -0.4964 -0.6074 0.6202
vn 0.1807 0.2377 -0.9544
vn -0.4074 -0.5040 0.7616
vn 0.0616 0.0802 -0.9949
vn -0.3022 -0.3784 0.8749
vn -0.0622 -0.0799 -0.9949
vn -0.1854 -0.2351 0.9541
vn -0.1854 -0.2351 -0.9541
vn -0.0622 -0.0799 0.9949
vn -0.3022 -0.3784 -0.8749
vn 0.0616 0.0802 0.9949
vn -0.4074 -0.5040 -0.7616
vn 0.1807 0.2377 0.9544
vn -0.4964 -0.6074 -0.6202
vn 0.2901 0.3854 0.8760
vn -0.5658 -0.6860 -0.4574
vn 0.5885 0.8028 -0.0954
vn 0.3860 0.5173 0.7639
vn -0.6131 -0.7387 -0.2801
vn 0.5677 0.7731 -0.2829
vn 0.4655 0.6282 0.6235
vn -0.6371 -0.7650 -0.0943
usemtl Material
s off
f 4//1 1//1 241//1 243//1
f 7//2 6//2 10//2 12//2
f 1//1 5//1 6//1 2//1
f 2//3 6//3 7//3 3//3
f 3//4 7//4 8//4 4//4
f 5//5 1//5 4//5 8//5
f 10//4 9//4 13//4 14//4
f 6//2 5//2 9//2 10//2
f 8//2 7//2 12//2 11//2
f 5//2 8//2 11//2 9//2
f 13//2 15//2 16//2 14//2
f 11//1 12//1 16//1 15//1
f 9//3 11//3 15//3 13//3
f 12//5 10//5 14//5 16//5
f 17//6 18//6 20//6 19//6
f 19//7 20//7 22//7 21//7
f 21//8 22//8 24//8 23//8
f 23//9 24//9 26//9 25//9
f 25//10 26//10 28//10 27//10
f 27//11 28//11 30//11 29//11
f 29//12 30//12 32//12 31//12
f 31//13 32//13 34//13 33//13
f 33//14 34//14 36//14 35//14
f 35//15 36//15 38//15 37//15
f 37//16 38//16 40//16 39//16
f 39//17 40//17 42//17 41//17
f 41//18 42//18 44//18 43//18
f 43//19 44//19 46//19 45//19
f 45//20 46//20 48//20 47//20
f 47//21 48//21 50//21 49//21
f 49//22 50//22 52//22 51//22
f 51//23 52//23 54//23 53//23
f 53//24 54//24 56//24 55//24
f 55//25 56//25 58//25 57//25
f 57//26 58//26 60//26 59//26
f 59//27 60//27 62//27 61//27
f 61//28 62//28 64//28 63//28
f 63//29 64//29 66//29 65//29
f 65//30 66//30 68//30 67//30
f 67//31 68//31 70//31 69//31
f 69//32 70//32 72//32 71//32
f 71//33 72//33 74//33 73//33
f 73//34 74//34 76//34 75//34
f 75//35 76//35 78//35 77//35
f 20//36 18//36 80//36 78//36 76//36 74//36 72//36 70//36 68//36 66//36 64//36 62//36 60//36 58//36 56//36 54//36 52//36 50//36 48//36 46//36 44//36 42//36 40//36 38//36 36//36 34//36 32//36 30//36 28//36 26//36 24//36 22//36
f 77//37 78//37 80//37 79//37
f 79//38 80//38 18//38 17//38
f 31//39 33//39 89//39 88//39
f 101//40 102//40 134//40 133//40
f 49//41 51//41 98//41 97//41
f 67//42 69//42 107//42 106//42
f 23//43 25//43 85//43 84//43
f 41//44 43//44 94//44 93//44
f 59//45 61//45 103//45 102//45
f 77//46 79//46 112//46 111//46
f 33//47 35//47 90//47 89//47
f 51//48 53//48 99//48 98//48
f 69//49 71//49 108//49 107//49
f 25//50 27//50 86//50 85//50
f 43//51 45//51 95//51 94//51
f 61//52 63//52 104//52 103//52
f 17//53 19//53 82//53 81//53
f 79//54 17//54 81//54 112//54
f 35//55 37//55 91//55 90//55
f 53//56 55//56 100//56 99//56
f 71//57 73//57 109//57 108//57
f 27//58 29//58 87//58 86//58
f 45//59 47//59 96//59 95//59
f 63//60 65//60 105//60 104//60
f 19//61 21//61 83//61 82//61
f 37//62 39//62 92//62 91//62
f 55//63 57//63 101//63 100//63
f 73//64 75//64 110//64 109//64
f 29//65 31//65 88//65 87//65
f 47//66 49//66 97//66 96//66
f 65//67 67//67 106//67 105//67
f 21//68 23//68 84//68 83//68
f 39//69 41//69 93//69 92//69
f 57//70 59//70 102//70 101//70
f 75//71 77//71 111//71 110//71
f 136//72 137//72 169//72 168//72
f 88//73 89//73 121//73 120//73
f 102//74 103//74 135//74 134//74
f 89//75 90//75 122//75 121//75
f 103//76 104//76 136//76 135//76
f 90//77 91//77 123//77 122//77
f 104//78 105//78 137//78 136//78
f 91//79 92//79 124//79 123//79
f 105//80 106//80 138//80 137//80
f 92//81 93//81 125//81 124//81
f 106//82 107//82 139//82 138//82
f 93//83 94//83 126//83 125//83
f 107//84 108//84 140//84 139//84
f 94//85 95//85 127//85 126//85
f 81//86 82//86 114//86 113//86
f 108//87 109//87 141//87 140//87
f 95//88 96//88 128//88 127//88
f 82//89 83//89 115//89 114//89
f 109//90 110//90 142//90 141//90
f 96//91 97//91 129//91 128//91
f 83//92 84//92 116//92 115//92
f 110//93 111//93 143//93 142//93
f 97//94 98//94 130//94 129//94
f 84//95 85//95 117//95 116//95
f 111//96 112//96 144//96 143//96
f 98//97 99//97 131//97 130//97
f 85//98 86//98 118//98 117//98
f 112//99 81//99 113//99 144//99
f 99//100 100//100 132//100 131//100
f 86//101 87//101 119//101 118//101
f 100//102 101//102 133//102 132//102
f 87//103 88//103 120//103 119//103
f 171//104 172//104 204//104 203//104
f 123//105 124//105 156//105 155//105
f 137//106 138//106 170//106 169//106
f 124//107 125//107 157//107 156//107
f 138//108 139//108 171//108 170//108
f 125//109 126//109 158//109 157//109
f 139//110 140//110 172//110 171//110
f 126//111 127//111 159//111 158//111
f 113//112 114//112 146//112 145//112
f 140//113 141//113 173//113 172//113
f 127//114 128//114 160//114 159//114
f 114//115 115//115 147//115 146//115
f 141//116 142//116 174//116 173//116
f 128//117 129//117 161//117 160//117
f 115//118 116//118 148//118 147//118
f 142//119 143//119 175//119 174//119
f 129//120 130//120 162//120 161//120
f 116//121 117//121 149//121 148//121
f 143//122 144//122 176//122 175//122
f 130//123 131//123 163//123 162//123
f 117//124 118//124 150//124 149//124
f 144//125 113//125 145//125 176//125
f 131//126 132//126 164//126 163//126
f 118//127 119//127 151//127 150//127
f 132//128 133//128 165//128 164//128
f 119//129 120//129 152//129 151//129
f 133//130 134//130 166//130 165//130
f 120//131 121//131 153//131 152//131
f 134//132 135//132 167//132 166//132
f 121//133 122//133 154//133 153//133
f 135//134 136//134 168//134 167//134
f 122//135 123//135 155//135 154//135
f 179//136 180//136 212//136 211//136
f 158//137 159//137 191//137 190//137
f 145//138 146//138 178//138 177//138
f 172//139 173//139 205//139 204//139
f 159//140 160//140 192//140 191//140
f 146//141 147//141 179//141 178//141
f 173//142 174//142 206//142 205//142
f 160//143 161//143 193//143 192//143
f 147//144 148//144 180//144 179//144
f 174//145 175//145 207//145 206//145
f 161//146 162//146 194//146 193//146
f 148//147 149//147 181//147 180//147
f 175//148 176//148 208//148 207//148
f 162//149 163//149 195//149 194//149
f 149//150 150//150 182//150 181//150
f 176//151 145//151 177//151 208//151
f 163//152 164//152 196//152 195//152
f 150//153 151//153 183//153 182//153
f 164//154 165//154 197//154 196//154
f 151//155 152//155 184//155 183//155
f 165//156 166//156 198//156 197//156
f 152//157 153//157 185//157 184//157
f 166//158 167//158 199//158 198//158
f 153//159 154//159 186//159 185//159
f 167//160 168//160 200//160 199//160
f 154//161 155//161 187//161 186//161
f 168//162 169//162 201//162 200//162
f 155//163 156//163 188//163 187//163
f 169//164 170//164 202//164 201//164
f 156//165 157//165 189//165 188//165
f 170//166 171//166 203//166 202//166
f 157//167 158//167 190//167 189//167
f 209//168 210//168 211//168 212//168 213//168 214//168 215//168 216//168 217//168 218//168 219//168 220//168 221//168 222//168 223//168 224//168 225//168 226//168 227//168 228//168 229//168 230//168 231//168 232//168 233//168 234//168 235//168 236//168 237//168 238//168 239//168 240//168
f 206//169 207//169 239//169 238//169
f 193//170 194//170 226//170 225//170
f 180//171 181//171 213//171 212//171
f 207//172 208//172 240//172 239//172
f 194//173 195//173 227//173 226//173
f 181//174 182//174 214//174 213//174
f 208//175 177//175 209//175 240//175
f 195//176 196//176 228//176 227//176
f 182//177 183//177 215//177 214//177
f 196//178 197//178 229//178 228//178
f 183//179 184//179 216//179 215//179
f 197//180 198//180 230//180 229//180
f 184//181 185//181 217//181 216//181
f 198//182 199//182 231//182 230//182
f 185//183 186//183 218//183 217//183
f 199//184 200//184 232//184 231//184
f 186//185 187//185 219//185 218//185
f 200//186 201//186 233//186 232//186
f 187//187 188//187 220//187 219//187
f 201//188 202//188 234//188 233//188
f 188//189 189//189 221//189 220//189
f 202//190 203//190 235//190 234//190
f 189//191 190//191 222//191 221//191
f 203//192 204//192 236//192 235//192
f 190//193 191//193 223//193 222//193
f 177//194 178//194 210//194 209//194
f 204//195 205//195 237//195 236//195
f 191//196 192//196 224//196 223//196
f 178//197 179//197 211//197 210//197
f 205//198 206//198 238//198 237//198
f 192//199 193//199 225//199 224//199
f 241//36 242//36 244//36 243//36
f 1//1 2//1 242//1 241//1
f 3//1 4//1 243//1 244//1
f 2//1 3//1 244//1 242//1
f 245//3 246//3 248//3 247//3
f 247//4 248//4 252//4 251//4
f 251//5 252//5 250//5 249//5
f 249//1 250//1 246//1 245//1
f 247//36 251//36 249//36 245//36
f 252//2 248//2 246//2 250//2
